<svg width="55" height="54" viewBox="0 0 55 54" fill="none" xmlns="http://www.w3.org/2000/svg">
<path d="M44.7121 8.00195C41.7165 5.38086 36.8549 5.38086 33.8594 8.00195L11.2701 27.7676C6.10156 32.29 6.10156 39.6162 11.2701 44.1387C16.4386 48.6611 24.8114 48.6611 29.9799 44.1387L48.6406 27.8105C49.9788 26.6396 52.1641 26.6396 53.5022 27.8105C54.8404 28.9814 54.8404 30.8936 53.5022 32.0645L34.8415 48.3926C26.9844 55.2676 14.2656 55.2676 6.40848 48.3926C-1.44866 41.5176 -1.44866 30.3887 6.40848 23.5137L28.9978 3.74805C34.6819 -1.22559 43.8895 -1.22559 49.5737 3.74805C55.2578 8.72168 55.2578 16.7783 49.5737 21.752L27.9665 40.6582C24.4554 43.7305 18.7589 43.7305 15.2478 40.6582C11.7366 37.5859 11.7366 32.6016 15.2478 29.5293L32.9263 14.0605C34.2645 12.8896 36.4498 12.8896 37.7879 14.0605C39.1261 15.2314 39.1261 17.1436 37.7879 18.3145L20.1094 33.7832C19.2868 34.5029 19.2868 35.6846 20.1094 36.4043C20.9319 37.124 22.2824 37.124 23.1049 36.4043L44.7121 17.498C47.7076 14.877 47.7076 10.623 44.7121 8.00195Z" fill="#5F6368"/>
</svg>
