<svg width="55" height="55" viewBox="0 0 55 55" fill="none" xmlns="http://www.w3.org/2000/svg">
<path d="M39.4453 44.3115L10.6885 15.5547C8.28223 18.917 6.875 23.042 6.875 27.5C6.875 38.8867 16.1133 48.125 27.5 48.125C31.958 48.125 36.083 46.7178 39.4453 44.3115ZM44.3115 39.4453C46.7178 36.083 48.125 31.958 48.125 27.5C48.125 16.1133 38.8867 6.875 27.5 6.875C23.042 6.875 18.917 8.28223 15.5547 10.6885L44.3115 39.4453ZM0 27.5C0 20.2065 2.89731 13.2118 8.05456 8.05456C13.2118 2.89731 20.2065 0 27.5 0C34.7935 0 41.7882 2.89731 46.9454 8.05456C52.1027 13.2118 55 20.2065 55 27.5C55 34.7935 52.1027 41.7882 46.9454 46.9454C41.7882 52.1027 34.7935 55 27.5 55C20.2065 55 13.2118 52.1027 8.05456 46.9454C2.89731 41.7882 0 34.7935 0 27.5Z" fill="#5F6368"/>
</svg>
