<svg width="55" height="55" viewBox="0 0 55 55" fill="none" xmlns="http://www.w3.org/2000/svg">
<g clip-path="url(#clip0_110_30)">
<path d="M30.9375 3.4375C30.9375 1.53613 29.4014 0 27.5 0C25.5986 0 24.0625 1.53613 24.0625 3.4375V29.5088L16.1777 21.624C14.835 20.2813 12.6543 20.2813 11.3115 21.624C9.96875 22.9668 9.96875 25.1475 11.3115 26.4902L25.0615 40.2402C26.4043 41.583 28.585 41.583 29.9277 40.2402L43.6777 26.4902C45.0205 25.1475 45.0205 22.9668 43.6777 21.624C42.335 20.2813 40.1543 20.2813 38.8115 21.624L30.9375 29.5088V3.4375ZM6.875 37.8125C3.08301 37.8125 0 40.8955 0 44.6875V48.125C0 51.917 3.08301 55 6.875 55H48.125C51.917 55 55 51.917 55 48.125V44.6875C55 40.8955 51.917 37.8125 48.125 37.8125H37.2217L32.3555 42.6787C29.6699 45.3643 25.3193 45.3643 22.6338 42.6787L17.7783 37.8125H6.875ZM46.4062 43.8281C47.09 43.8281 47.7458 44.0997 48.2293 44.5832C48.7128 45.0667 48.9844 45.7225 48.9844 46.4062C48.9844 47.09 48.7128 47.7458 48.2293 48.2293C47.7458 48.7128 47.09 48.9844 46.4062 48.9844C45.7225 48.9844 45.0667 48.7128 44.5832 48.2293C44.0997 47.7458 43.8281 47.09 43.8281 46.4062C43.8281 45.7225 44.0997 45.0667 44.5832 44.5832C45.0667 44.0997 45.7225 43.8281 46.4062 43.8281Z" fill="#5F6368"/>
</g>
<defs>
<clipPath id="clip0_110_30">
<rect width="55" height="55" fill="white"/>
</clipPath>
</defs>
</svg>
