<svg width="50" height="50" viewBox="0 0 50 50" fill="none" xmlns="http://www.w3.org/2000/svg">
<path d="M46.5341 1.6207C44.3732 -0.540234 40.8802 -0.540234 38.7192 1.6207L35.7492 4.58089L45.4092 14.241L48.3793 11.2709C50.5402 9.10997 50.5402 5.61695 48.3793 3.45602L46.5341 1.6207ZM17.0112 23.3287C16.4093 23.9306 15.9455 24.6707 15.6791 25.4897L12.7584 34.2518C12.4722 35.1004 12.6992 36.0378 13.3307 36.6792C13.9622 37.3205 14.8996 37.5376 15.7581 37.2515L24.5202 34.3308C25.3293 34.0643 26.0694 33.6006 26.6811 32.9987L43.1891 16.4808L33.5192 6.81089L17.0112 23.3287ZM9.47259 5.79456C4.24293 5.79456 0 10.0375 0 15.2672V40.5274C0 45.7571 4.24293 50 9.47259 50H34.7328C39.9625 50 44.2054 45.7571 44.2054 40.5274V31.0548C44.2054 29.3083 42.7944 27.8973 41.0479 27.8973C39.3014 27.8973 37.8904 29.3083 37.8904 31.0548V40.5274C37.8904 42.2739 36.4794 43.6849 34.7328 43.6849H9.47259C7.72608 43.6849 6.31506 42.2739 6.31506 40.5274V15.2672C6.31506 13.5206 7.72608 12.1096 9.47259 12.1096H18.9452C20.6917 12.1096 22.1027 10.6986 22.1027 8.95209C22.1027 7.20558 20.6917 5.79456 18.9452 5.79456H9.47259Z" fill="#5F6368"/>
</svg>
