<svg width="55" height="55" viewBox="0 0 55 55" fill="none" xmlns="http://www.w3.org/2000/svg">
<g clip-path="url(#clip0_108_14)">
<path d="M49.8438 27.5C49.8437 21.5741 47.4897 15.8908 43.2994 11.7006C39.1092 7.51032 33.4259 5.15625 27.5 5.15625C21.5741 5.15625 15.8908 7.51032 11.7006 11.7006C7.51032 15.8908 5.15625 21.5741 5.15625 27.5C5.15625 33.4259 7.51032 39.1092 11.7006 43.2994C15.8908 47.4897 21.5741 49.8438 27.5 49.8438C33.4259 49.8438 39.1092 47.4897 43.2994 43.2994C47.4897 39.1092 49.8438 33.4259 49.8438 27.5ZM0 27.5C0 20.2065 2.89731 13.2118 8.05456 8.05456C13.2118 2.89731 20.2065 0 27.5 0C34.7935 0 41.7882 2.89731 46.9454 8.05456C52.1027 13.2118 55 20.2065 55 27.5C55 34.7935 52.1027 41.7882 46.9454 46.9454C41.7882 52.1027 34.7935 55 27.5 55C20.2065 55 13.2118 52.1027 8.05456 46.9454C2.89731 41.7882 0 34.7935 0 27.5ZM19.0781 34.1709C20.7109 35.9326 23.5039 37.8125 27.5 37.8125C31.4961 37.8125 34.2891 35.9326 35.9219 34.1709C36.8887 33.1289 38.5215 33.0537 39.5635 34.0205C40.6055 34.9873 40.6807 36.6201 39.7139 37.6621C37.3506 40.2188 33.2686 42.9688 27.5107 42.9688C21.7529 42.9688 17.6602 40.2295 15.3076 37.6621C14.3408 36.6201 14.4053 34.9873 15.458 34.0205C16.5107 33.0537 18.1328 33.1182 19.0996 34.1709H19.0781ZM15.5117 22.3438C15.5117 21.4321 15.8739 20.5577 16.5185 19.9131C17.1632 19.2684 18.0375 18.9062 18.9492 18.9062C19.8609 18.9062 20.7352 19.2684 21.3799 19.9131C22.0246 20.5577 22.3867 21.4321 22.3867 22.3438C22.3867 23.2554 22.0246 24.1298 21.3799 24.7744C20.7352 25.4191 19.8609 25.7812 18.9492 25.7812C18.0375 25.7812 17.1632 25.4191 16.5185 24.7744C15.8739 24.1298 15.5117 23.2554 15.5117 22.3438ZM36.1367 18.9062C37.0484 18.9062 37.9227 19.2684 38.5674 19.9131C39.2121 20.5577 39.5742 21.4321 39.5742 22.3438C39.5742 23.2554 39.2121 24.1298 38.5674 24.7744C37.9227 25.4191 37.0484 25.7812 36.1367 25.7812C35.225 25.7812 34.3507 25.4191 33.706 24.7744C33.0614 24.1298 32.6992 23.2554 32.6992 22.3438C32.6992 21.4321 33.0614 20.5577 33.706 19.9131C34.3507 19.2684 35.225 18.9062 36.1367 18.9062Z" fill="#5F6368"/>
</g>
<defs>
<clipPath id="clip0_108_14">
<rect width="55" height="55" fill="white"/>
</clipPath>
</defs>
</svg>
