<svg width="55" height="55" viewBox="0 0 55 55" fill="none" xmlns="http://www.w3.org/2000/svg">
<g clip-path="url(#clip0_110_22)">
<path d="M27.5 55C34.7935 55 41.7882 52.1027 46.9454 46.9454C52.1027 41.7882 55 34.7935 55 27.5C55 20.2065 52.1027 13.2118 46.9454 8.05456C41.7882 2.89731 34.7935 0 27.5 0C20.2065 0 13.2118 2.89731 8.05456 8.05456C2.89731 13.2118 0 20.2065 0 27.5C0 34.7935 2.89731 41.7882 8.05456 46.9454C13.2118 52.1027 20.2065 55 27.5 55ZM23.2031 36.0938H25.7812V29.2188H23.2031C21.7744 29.2188 20.625 28.0693 20.625 26.6406C20.625 25.2119 21.7744 24.0625 23.2031 24.0625H28.3594C29.7881 24.0625 30.9375 25.2119 30.9375 26.6406V36.0938H31.7969C33.2256 36.0938 34.375 37.2432 34.375 38.6719C34.375 40.1006 33.2256 41.25 31.7969 41.25H23.2031C21.7744 41.25 20.625 40.1006 20.625 38.6719C20.625 37.2432 21.7744 36.0938 23.2031 36.0938ZM27.5 13.75C28.4117 13.75 29.286 14.1122 29.9307 14.7568C30.5753 15.4015 30.9375 16.2758 30.9375 17.1875C30.9375 18.0992 30.5753 18.9735 29.9307 19.6182C29.286 20.2628 28.4117 20.625 27.5 20.625C26.5883 20.625 25.714 20.2628 25.0693 19.6182C24.4247 18.9735 24.0625 18.0992 24.0625 17.1875C24.0625 16.2758 24.4247 15.4015 25.0693 14.7568C25.714 14.1122 26.5883 13.75 27.5 13.75Z" fill="#5F6368"/>
</g>
<defs>
<clipPath id="clip0_110_22">
<rect width="55" height="55" fill="white"/>
</clipPath>
</defs>
</svg>
