<svg width="40" height="55" viewBox="0 0 40 55" fill="none" xmlns="http://www.w3.org/2000/svg">
<path d="M20 0C13.9773 0 9.09091 4.61914 9.09091 10.3125V27.5C9.09091 33.1934 13.9773 37.8125 20 37.8125C26.0227 37.8125 30.9091 33.1934 30.9091 27.5V10.3125C30.9091 4.61914 26.0227 0 20 0ZM5.45455 23.2031C5.45455 21.7744 4.23864 20.625 2.72727 20.625C1.21591 20.625 0 21.7744 0 23.2031V27.5C0 37.0713 7.52273 44.9775 17.2727 46.2344V49.8438H11.8182C10.3068 49.8438 9.09091 50.9932 9.09091 52.4219C9.09091 53.8506 10.3068 55 11.8182 55H20H28.1818C29.6932 55 30.9091 53.8506 30.9091 52.4219C30.9091 50.9932 29.6932 49.8438 28.1818 49.8438H22.7273V46.2344C32.4773 44.9775 40 37.0713 40 27.5V23.2031C40 21.7744 38.7841 20.625 37.2727 20.625C35.7614 20.625 34.5455 21.7744 34.5455 23.2031V27.5C34.5455 35.0947 28.0341 41.25 20 41.25C11.9659 41.25 5.45455 35.0947 5.45455 27.5V23.2031Z" fill="#5F6368"/>
</svg>
