<svg width="55" height="55" viewBox="0 0 55 55" fill="none" xmlns="http://www.w3.org/2000/svg">
<path d="M0.982143 27.5C0.982143 25.9046 1.70647 24.3745 2.99578 23.2463C4.2851 22.1182 6.03378 21.4844 7.85714 21.4844C9.68051 21.4844 11.4292 22.1182 12.7185 23.2463C14.0078 24.3745 14.7321 25.9046 14.7321 27.5C14.7321 29.0954 14.0078 30.6255 12.7185 31.7537C11.4292 32.8818 9.68051 33.5156 7.85714 33.5156C6.03378 33.5156 4.2851 32.8818 2.99578 31.7537C1.70647 30.6255 0.982143 29.0954 0.982143 27.5ZM20.625 27.5C20.625 25.9046 21.3493 24.3745 22.6386 23.2463C23.928 22.1182 25.6766 21.4844 27.5 21.4844C29.3234 21.4844 31.072 22.1182 32.3614 23.2463C33.6507 24.3745 34.375 25.9046 34.375 27.5C34.375 29.0954 33.6507 30.6255 32.3614 31.7537C31.072 32.8818 29.3234 33.5156 27.5 33.5156C25.6766 33.5156 23.928 32.8818 22.6386 31.7537C21.3493 30.6255 20.625 29.0954 20.625 27.5ZM47.1429 21.4844C48.9662 21.4844 50.7149 22.1182 52.0042 23.2463C53.2935 24.3745 54.0179 25.9046 54.0179 27.5C54.0179 29.0954 53.2935 30.6255 52.0042 31.7537C50.7149 32.8818 48.9662 33.5156 47.1429 33.5156C45.3195 33.5156 43.5708 32.8818 42.2815 31.7537C40.9922 30.6255 40.2679 29.0954 40.2679 27.5C40.2679 25.9046 40.9922 24.3745 42.2815 23.2463C43.5708 22.1182 45.3195 21.4844 47.1429 21.4844Z" fill="#5F6368"/>
</svg>
