<svg width="55" height="55" viewBox="0 0 55 55" fill="none" xmlns="http://www.w3.org/2000/svg">
<path d="M17.7139 2.645C16.8867 0.646953 14.7061 -0.416523 12.6221 0.152813L3.16895 2.73094C1.2998 3.24656 0 4.94383 0 6.87742C0 33.4536 21.5488 55.0024 48.125 55.0024C50.0586 55.0024 51.7559 53.7026 52.2715 51.8335L54.8496 42.3804C55.4189 40.2964 54.3555 38.1157 52.3574 37.2886L42.0449 32.9917C40.2939 32.2612 38.2637 32.7661 37.0713 34.2378L32.7314 39.5337C25.1689 35.9565 19.0459 29.8335 15.4688 22.271L20.7646 17.9419C22.2363 16.7388 22.7412 14.7192 22.0107 12.9682L17.7139 2.65574V2.645Z" fill="#5F6368"/>
</svg>
