<svg width="55" height="55" viewBox="0 0 55 55" fill="none" xmlns="http://www.w3.org/2000/svg">
<path d="M31.7308 4.23077C31.7308 1.89062 29.8401 0 27.5 0C25.1599 0 23.2692 1.89062 23.2692 4.23077V23.2692H4.23077C1.89062 23.2692 0 25.1599 0 27.5C0 29.8401 1.89062 31.7308 4.23077 31.7308H23.2692V50.7692C23.2692 53.1094 25.1599 55 27.5 55C29.8401 55 31.7308 53.1094 31.7308 50.7692V31.7308H50.7692C53.1094 31.7308 55 29.8401 55 27.5C55 25.1599 53.1094 23.2692 50.7692 23.2692H31.7308V4.23077Z" fill="#5F6368"/>
</svg>
