<svg width="55" height="55" viewBox="0 0 55 55" fill="none" xmlns="http://www.w3.org/2000/svg">
<path d="M44.6897 22.3405C44.6897 27.2704 43.089 31.8244 40.3926 35.5192L53.9929 49.1276C55.3357 50.4701 55.3357 52.6505 53.9929 53.9931C52.65 55.3356 50.4693 55.3356 49.1264 53.9931L35.5261 40.3847C31.8307 43.0913 27.2757 44.681 22.3448 44.681C10.0015 44.681 0 34.6814 0 22.3405C0 9.99951 10.0015 0 22.3448 0C34.6882 0 44.6897 9.99951 44.6897 22.3405ZM22.3448 37.807C24.3763 37.807 26.3879 37.4069 28.2648 36.6296C30.1416 35.8524 31.847 34.7131 33.2834 33.2769C34.7199 31.8407 35.8594 30.1357 36.6368 28.2592C37.4142 26.3828 37.8143 24.3716 37.8143 22.3405C37.8143 20.3094 37.4142 18.2982 36.6368 16.4217C35.8594 14.5452 34.7199 12.8402 33.2834 11.404C31.847 9.96783 30.1416 8.82857 28.2648 8.05131C26.3879 7.27405 24.3763 6.87399 22.3448 6.87399C20.3134 6.87399 18.3018 7.27405 16.4249 8.05131C14.5481 8.82857 12.8427 9.96783 11.4062 11.404C9.96977 12.8402 8.8303 14.5452 8.05288 16.4217C7.27547 18.2982 6.87534 20.3094 6.87534 22.3405C6.87534 24.3716 7.27547 26.3828 8.05288 28.2592C8.8303 30.1357 9.96977 31.8407 11.4062 33.2769C12.8427 34.7131 14.5481 35.8524 16.4249 36.6296C18.3018 37.4069 20.3134 37.807 22.3448 37.807Z" fill="#5F6368"/>
</svg>
