<svg width="55" height="55" viewBox="0 0 55 55" fill="none" xmlns="http://www.w3.org/2000/svg">
<g clip-path="url(#clip0_110_34)">
<path d="M55 27.5C55 27.5967 55 27.6934 55 27.79C54.957 31.7109 51.3906 34.375 47.4697 34.375H36.9531C34.1064 34.375 31.7969 36.6846 31.7969 39.5312C31.7969 39.8965 31.8398 40.251 31.9043 40.5947C32.1299 41.6904 32.6025 42.7432 33.0645 43.8066C33.7197 45.2891 34.3643 46.7607 34.3643 48.3184C34.3643 51.7344 32.0439 54.8389 28.6279 54.9785C28.252 54.9893 27.876 55 27.4893 55C12.3105 55 0 42.6895 0 27.5C0 12.3105 12.3105 0 27.5 0C42.6895 0 55 12.3105 55 27.5ZM13.75 30.9375C13.75 30.0258 13.3878 29.1515 12.7432 28.5068C12.0985 27.8622 11.2242 27.5 10.3125 27.5C9.40082 27.5 8.52648 27.8622 7.88182 28.5068C7.23716 29.1515 6.875 30.0258 6.875 30.9375C6.875 31.8492 7.23716 32.7235 7.88182 33.3682C8.52648 34.0128 9.40082 34.375 10.3125 34.375C11.2242 34.375 12.0985 34.0128 12.7432 33.3682C13.3878 32.7235 13.75 31.8492 13.75 30.9375ZM13.75 20.625C14.6617 20.625 15.536 20.2628 16.1807 19.6182C16.8253 18.9735 17.1875 18.0992 17.1875 17.1875C17.1875 16.2758 16.8253 15.4015 16.1807 14.7568C15.536 14.1122 14.6617 13.75 13.75 13.75C12.8383 13.75 11.964 14.1122 11.3193 14.7568C10.6747 15.4015 10.3125 16.2758 10.3125 17.1875C10.3125 18.0992 10.6747 18.9735 11.3193 19.6182C11.964 20.2628 12.8383 20.625 13.75 20.625ZM30.9375 10.3125C30.9375 9.40082 30.5753 8.52648 29.9307 7.88182C29.286 7.23716 28.4117 6.875 27.5 6.875C26.5883 6.875 25.714 7.23716 25.0693 7.88182C24.4247 8.52648 24.0625 9.40082 24.0625 10.3125C24.0625 11.2242 24.4247 12.0985 25.0693 12.7432C25.714 13.3878 26.5883 13.75 27.5 13.75C28.4117 13.75 29.286 13.3878 29.9307 12.7432C30.5753 12.0985 30.9375 11.2242 30.9375 10.3125ZM41.25 20.625C42.1617 20.625 43.036 20.2628 43.6807 19.6182C44.3253 18.9735 44.6875 18.0992 44.6875 17.1875C44.6875 16.2758 44.3253 15.4015 43.6807 14.7568C43.036 14.1122 42.1617 13.75 41.25 13.75C40.3383 13.75 39.464 14.1122 38.8193 14.7568C38.1747 15.4015 37.8125 16.2758 37.8125 17.1875C37.8125 18.0992 38.1747 18.9735 38.8193 19.6182C39.464 20.2628 40.3383 20.625 41.25 20.625Z" fill="#5F6368"/>
</g>
<defs>
<clipPath id="clip0_110_34">
<rect width="55" height="55" fill="white"/>
</clipPath>
</defs>
</svg>
