<svg width="45" height="55" viewBox="0 0 45 55" fill="none" xmlns="http://www.w3.org/2000/svg">
<g clip-path="url(#clip0_108_12)">
<path d="M13.5804 1.90137L12.8571 3.4375H3.21429C1.43638 3.4375 0 4.97363 0 6.875C0 8.77637 1.43638 10.3125 3.21429 10.3125H41.7857C43.5636 10.3125 45 8.77637 45 6.875C45 4.97363 43.5636 3.4375 41.7857 3.4375H32.1429L31.4196 1.90137C30.8772 0.730469 29.7623 0 28.5469 0H16.4531C15.2377 0 14.1228 0.730469 13.5804 1.90137ZM41.7857 13.75H3.21429L5.34375 50.166C5.50446 52.8838 7.61384 55 10.1551 55H34.8449C37.3862 55 39.4955 52.8838 39.6562 50.166L41.7857 13.75Z" fill="#5F6368"/>
</g>
<defs>
<clipPath id="clip0_108_12">
<rect width="45" height="55" fill="white"/>
</clipPath>
</defs>
</svg>
