<svg width="55" height="40" viewBox="0 0 55 40" fill="none" xmlns="http://www.w3.org/2000/svg">
<path d="M0 6.66667C0 2.98958 2.74045 0 6.11111 0H30.5556C33.9262 0 36.6667 2.98958 36.6667 6.66667V33.3333C36.6667 37.0104 33.9262 40 30.5556 40H6.11111C2.74045 40 0 37.0104 0 33.3333V6.66667ZM53.3863 3.72917C54.3793 4.3125 55 5.4375 55 6.66667V33.3333C55 34.5625 54.3793 35.6875 53.3863 36.2708C52.3932 36.8542 51.1901 36.7917 50.2448 36.1042L41.0781 29.4375L39.7222 28.4479V26.6667V13.3333V11.5521L41.0781 10.5625L50.2448 3.89583C51.1806 3.21875 52.3837 3.14583 53.3863 3.72917Z" fill="#5F6368"/>
</svg>
